<?xml version="1.0" encoding="UTF-8"?>
<svg width="45px" height="44px" viewBox="0 0 45 44" version="1.1" xmlns="http://www.w3.org/2000/svg" xmlns:xlink="http://www.w3.org/1999/xlink">
    <!-- Generator: Sketch 48.2 (47327) - http://www.bohemiancoding.com/sketch -->
    <title>folder-icon</title>
    <desc>Created with Sketch.</desc>
    <defs></defs>
    <g id="Symbols" stroke="none" stroke-width="1" fill="none" fill-rule="evenodd">
        <g id="folder-icon">
            <rect id="Rectangle-2" fill="#F6F6F6" x="2" y="1" width="18" height="4"></rect>
            <g id="folder">
                <g>
                    <path d="M1.91489362,6.66721731 L1.91489362,42.0854983 L43.0851064,42.0854983 L43.0851064,6.66721731 L1.91489362,6.66721731 Z M0.0170263625,5.5462573 L0.0170263625,0.957250838 C0.0170263625,0.428575799 0.4456899,0 0.974473171,0 L18.224417,0 C18.5146096,0 18.7891426,0.131586274 18.9708724,0.357783179 L22.5018248,4.75271563 L43.0851064,4.75271563 C44.1426729,4.75271563 45,5.60986723 45,6.66721731 L45,42.0854983 C45,43.1428484 44.1426729,44 43.0851064,44 L1.91489362,44 C0.857327075,44 5.69507549e-14,43.1428484 5.68434189e-14,42.0854983 L5.68434189e-14,6.66721731 C4.64918334e-14,6.19465667 0.00222601256,5.82857673 0.0170263625,5.5462573 Z M1.947101,1.94153494 L1.947101,4.75094446 L20.048819,4.75094446 L17.8420802,1.94153494 L1.947101,1.94153494 Z" id="Combined-Shape" fill="#4A90E2" fill-rule="nonzero"></path>
                    <rect id="Rectangle" fill="#F6F6F6" x="1.92155536" y="6.66190316" width="41.0784446" height="35.3380968"></rect>
                </g>
            </g>
        </g>
    </g>
</svg>