<?xml version="1.0" encoding="UTF-8"?>
<svg width="45px" height="44px" viewBox="0 0 45 44" version="1.1" xmlns="http://www.w3.org/2000/svg" xmlns:xlink="http://www.w3.org/1999/xlink">
    <!-- Generator: Sketch 48.2 (47327) - http://www.bohemiancoding.com/sketch -->
    <title>folder-icon copy</title>
    <desc>Created with Sketch.</desc>
    <defs></defs>
    <g id="Symbols" stroke="none" stroke-width="1" fill="none" fill-rule="evenodd">
        <g id="folder-icon-copy" fill="#4A90E2" fill-rule="nonzero">
            <g id="folder-icon">
                <g id="folder">
                    <path d="M1.91489362,6.69565217 L1.91489362,42.0869565 L43.0851064,42.0869565 L43.0851064,6.69565217 L1.91489362,6.69565217 Z M0.0890837004,6.11724372 C0.0426455701,6.00484873 0.0170263625,5.88168019 0.0170263625,5.75253374 L0.0170263625,0.990034753 C0.0170263625,0.461762383 0.4456899,0.0335130136 0.974473171,0.0335130136 L18.224417,0.0335130136 C18.5146096,0.0335130136 18.7891426,0.164999064 18.9708724,0.391023683 L22.5018248,4.7826087 L43.0851064,4.7826087 C44.1426729,4.7826087 45,5.63910744 45,6.69565217 L45,42.0869565 C45,43.1435013 44.1426729,44 43.0851064,44 L1.91489362,44 C0.857327075,44 1.06297949e-16,43.1435013 0,42.0869565 L0,6.69565217 C-4.05669859e-17,6.49404511 0.0312163599,6.29972197 0.0890837004,6.11724372 Z M1.947101,1.97356916 L1.947101,4.78083887 L20.048819,4.78083887 L17.8420802,1.97356916 L1.947101,1.97356916 Z" id="Combined-Shape"></path>
                </g>
            </g>
        </g>
    </g>
</svg>