<?xml version="1.0" encoding="UTF-8"?>
<svg width="45px" height="44px" viewBox="0 0 45 44" version="1.1" xmlns="http://www.w3.org/2000/svg" xmlns:xlink="http://www.w3.org/1999/xlink">
    <!-- Generator: Sketch 49 (51002) - http://www.bohemiancoding.com/sketch -->
    <title>folder-icon-specs</title>
    <desc>Created with Sketch.</desc>
    <defs>
        <path d="M7,0 L26.0679933,0 L39,11.8837576 L39,42 C39,43.1045695 38.1045695,44 37,44 L7,44 C5.8954305,44 5,43.1045695 5,42 L5,2 C5,0.8954305 5.8954305,2.02906125e-16 7,0 Z" id="path-1"></path>
        <path d="M7,0 L26.0679933,0 L26.0679933,9.81842382 C26.0679933,10.918331 26.9561598,11.8118184 28.0560473,11.8183881 L39,11.8837576 L39,42 C39,43.1045695 38.1045695,44 37,44 L7,44 C5.8954305,44 5,43.1045695 5,42 L5,2 C5,0.8954305 5.8954305,2.02906125e-16 7,0 Z" id="path-2"></path>
    </defs>
    <g id="folder-icon-specs" stroke="none" stroke-width="1" fill="none" fill-rule="evenodd">
        <g id="Rectangle-3">
            <use fill="#4A90E2" fill-rule="evenodd" xlink:href="#path-1"></use>
            <path stroke="#4A90E2" stroke-width="2" d="M38,12.3229226 L25.6782987,1 L7,1 C6.44771525,1 6,1.44771525 6,2 L6,42 C6,42.5522847 6.44771525,43 7,43 L37,43 C37.5522847,43 38,42.5522847 38,42 L38,12.3229226 Z"></path>
        </g>
        <g id="Rectangle-3-Copy">
            <use fill="#4A90E2" fill-rule="evenodd" xlink:href="#path-2"></use>
            <path stroke="#4A90E2" stroke-width="2" d="M38,12.8778023 L28.0500743,12.8183703 C26.400243,12.8085157 25.0679933,11.4682845 25.0679933,9.81842382 L25.0679933,1 L7,1 C6.44771525,1 6,1.44771525 6,2 L6,42 C6,42.5522847 6.44771525,43 7,43 L37,43 C37.5522847,43 38,42.5522847 38,42 L38,12.8778023 Z"></path>
        </g>
        <path d="M14.0002147,25.5981841 C14.0002147,24.973812 13.5239987,24.7515778 12.6456447,24.4446831 C11.5556391,24.0637102 10.3280599,23.4710858 10.3280599,22.0953506 C10.3280599,21.0476753 11.2593269,20 12.7514705,20 C14.296527,20 15.1642984,21.1746662 15.1642984,21.1746662 L14.2859444,22.0424377 C14.2859444,22.0424377 13.6721548,21.206414 12.7514705,21.206414 C12.1165157,21.206414 11.6191345,21.5979694 11.6191345,22.0953506 C11.6191345,22.7408879 12.2011764,22.9419569 13.2171039,23.3229297 C14.3494398,23.7462329 15.2912893,24.2541966 15.2912893,25.5981841 C15.2912893,26.9421716 14.1060405,27.661787 12.7091401,27.661787 C10.8571889,27.661787 10,26.1484782 10,26.1484782 L10.9524321,25.3442022 C10.9524321,25.3442022 11.5873868,26.455373 12.7091401,26.455373 C13.3440949,26.455373 14.0002147,26.2013911 14.0002147,25.5981841 Z M18.9528616,23.6615722 C19.820633,23.6615722 20.2756839,23.1959388 20.2756839,22.4974886 C20.2756839,21.7990384 19.820633,21.3334049 18.9528616,21.3334049 L17.862856,21.3334049 L17.862856,23.6615722 L18.9528616,23.6615722 Z M16.5929465,27.534796 L16.5929465,20.1269909 L19.1116003,20.1269909 C20.5825787,20.1269909 21.5667585,21.1429185 21.5667585,22.4974886 C21.5667585,23.8520586 20.5825787,24.8679862 19.1116003,24.8679862 L17.862856,24.8679862 L17.862856,27.534796 L16.5929465,27.534796 Z M23.8525955,21.3334049 L23.8525955,23.1324433 L26.8157176,23.1324433 L26.8157176,24.3388573 L23.8525955,24.3388573 L23.8525955,26.3283821 L27.1331949,26.3283821 L27.1331949,27.534796 L22.5826861,27.534796 L22.5826861,20.1269909 L27.0696994,20.1269909 L27.0696994,21.3334049 L23.8525955,21.3334049 Z M31.6942863,26.4765382 C32.9959435,26.4765382 33.6943937,25.5664364 33.6943937,25.5664364 L34.541,26.4024601 C34.541,26.4024601 33.5674028,27.661787 31.6942863,27.661787 C29.5566054,27.661787 27.9374709,26.0214873 27.9374709,23.8308935 C27.9374709,21.6402997 29.5566054,20 31.6942863,20 C33.4721596,20 34.4351742,21.1640837 34.4351742,21.1640837 L33.5779853,22.0001074 C33.5779853,22.0001074 32.9112829,21.1852488 31.6942863,21.1852488 C30.2338905,21.1852488 29.2285455,22.4022454 29.2285455,23.8308935 C29.2285455,25.2595416 30.2338905,26.4765382 31.6942863,26.4765382 Z" id="SPEC" fill="#FFFFFF"></path>
    </g>
</svg>