<?xml version="1.0" encoding="UTF-8"?>
<svg width="60px" height="32px" viewBox="0 0 60 32" version="1.1" xmlns="http://www.w3.org/2000/svg" xmlns:xlink="http://www.w3.org/1999/xlink">
    <!-- Generator: Sketch 43.2 (39069) - http://www.bohemiancoding.com/sketch -->
    <title>chat/help-button</title>
    <desc>Created with Sketch.</desc>
    <defs>
        <path d="M51,5.00861359 C51,2.24243269 48.7593214,0 45.9937202,0 L5.00627976,0 C2.24138779,0 0,2.23054698 0,4.99214053 L0,17.0078595 C0,19.7649426 2.23588964,21.9954695 5.00033499,21.9902321 C5.00033499,21.9902321 43.0841506,21.9076321 47,22 C49.0418947,21.9076321 52,24 52,24 L51,17 L51,5.00861359 Z" id="path-1"></path>
        <filter x="-12.5%" y="-22.9%" width="125.0%" height="154.2%" filterUnits="objectBoundingBox" id="filter-3">
            <feOffset dx="0" dy="1" in="SourceAlpha" result="shadowOffsetOuter1"></feOffset>
            <feGaussianBlur stdDeviation="2" in="shadowOffsetOuter1" result="shadowBlurOuter1"></feGaussianBlur>
            <feColorMatrix values="0 0 0 0 0   0 0 0 0 0   0 0 0 0 0  0 0 0 0.249716938 0" type="matrix" in="shadowBlurOuter1"></feColorMatrix>
        </filter>
        <path d="M0.665,0.816 L1.827,0.816 L1.827,4.666 L6.097,4.666 L6.097,0.816 L7.273,0.816 L7.273,10 L6.097,10 L6.097,5.674 L1.827,5.674 L1.827,10 L0.665,10 L0.665,0.816 Z M9.177,6.612 C9.177,6.0519972 9.26333247,5.55033555 9.436,5.107 C9.60866753,4.66366445 9.83733191,4.28800154 10.122,3.98 C10.4066681,3.67199846 10.7309982,3.43633415 11.095,3.273 C11.4590018,3.10966585 11.836998,3.028 12.229,3.028 C12.6583355,3.028 13.0433316,3.10266592 13.384,3.252 C13.7246684,3.40133408 14.0093322,3.6159986 14.238,3.896 C14.4666678,4.1760014 14.6416661,4.51199804 14.763,4.904 C14.8843339,5.29600196 14.945,5.73466424 14.945,6.22 C14.945,6.47200126 14.9310001,6.68199916 14.903,6.85 L10.311,6.85 C10.3576669,7.58733702 10.583998,8.17066452 10.99,8.6 C11.396002,9.02933548 11.9256634,9.244 12.579,9.244 C12.9056683,9.244 13.2066653,9.19500049 13.482,9.097 C13.7573347,8.99899951 14.0209987,8.87066746 14.273,8.712 L14.679,9.468 C14.3803318,9.6546676 14.0490018,9.8179993 13.685,9.958 C13.3209982,10.0980007 12.905669,10.168 12.439,10.168 C11.9816644,10.168 11.5546686,10.0863342 11.158,9.923 C10.7613313,9.75966585 10.4160015,9.52633485 10.122,9.223 C9.82799853,8.91966515 9.59700084,8.54866886 9.429,8.11 C9.26099916,7.67133114 9.177,7.1720028 9.177,6.612 Z M13.937,6.094 C13.937,5.3939965 13.7900015,4.85966851 13.496,4.491 C13.2019985,4.12233149 12.7890027,3.938 12.257,3.938 C12.0143321,3.938 11.7833344,3.98699951 11.564,4.085 C11.3446656,4.18300049 11.1463342,4.32299909 10.969,4.505 C10.7916658,4.68700091 10.6446672,4.91099867 10.528,5.177 C10.4113327,5.44300133 10.3343335,5.74866494 10.297,6.094 L13.937,6.094 Z M16.625,0.032 L17.773,0.032 L17.773,8.712 C17.773,8.8986676 17.8056663,9.02933296 17.871,9.104 C17.9363337,9.17866704 18.0109996,9.216 18.095,9.216 L18.2,9.216 C18.2326668,9.216 18.2816663,9.20666676 18.347,9.188 L18.501,10.056 C18.426333,10.0933335 18.3376672,10.1213332 18.235,10.14 C18.1323328,10.1586668 18.0016675,10.168 17.843,10.168 C17.4043311,10.168 17.0916676,10.0373346 16.905,9.776 C16.7183324,9.51466536 16.625,9.13200252 16.625,8.628 L16.625,0.032 Z M21.343,10.574 L21.343,12.87 L20.195,12.87 L20.195,3.196 L21.147,3.196 L21.245,3.98 L21.287,3.98 C21.5950015,3.71866536 21.9333315,3.4946676 22.302,3.308 C22.6706685,3.1213324 23.0556647,3.028 23.457,3.028 C23.8956689,3.028 24.2829983,3.10966585 24.619,3.273 C24.9550017,3.43633415 25.2349989,3.66966515 25.459,3.973 C25.6830011,4.27633485 25.8533327,4.64033121 25.97,5.065 C26.0866672,5.48966879 26.145,5.96799734 26.145,6.5 C26.145,7.07866956 26.0656675,7.59433107 25.907,8.047 C25.7483325,8.49966893 25.533668,8.88466508 25.263,9.202 C24.992332,9.51933492 24.6796684,9.75966585 24.325,9.923 C23.9703316,10.0863342 23.597002,10.168 23.205,10.168 C22.8876651,10.168 22.5726682,10.0980007 22.26,9.958 C21.9473318,9.8179993 21.6323349,9.62666788 21.315,9.384 L21.343,10.574 Z M21.343,8.488 C21.6510015,8.74933464 21.9496652,8.93366613 22.239,9.041 C22.5283348,9.14833387 22.7849989,9.202 23.009,9.202 C23.2890014,9.202 23.5479988,9.13900063 23.786,9.013 C24.0240012,8.88699937 24.2293325,8.70966781 24.402,8.481 C24.5746675,8.25233219 24.7099995,7.97000168 24.808,7.634 C24.9060005,7.29799832 24.955,6.9200021 24.955,6.5 C24.955,6.1266648 24.9223337,5.78600154 24.857,5.478 C24.7916663,5.16999846 24.6866674,4.90633443 24.542,4.687 C24.3973326,4.46766557 24.2106678,4.29733394 23.982,4.176 C23.7533322,4.05466606 23.4803349,3.994 23.163,3.994 C22.8736652,3.994 22.5820015,4.07333254 22.288,4.232 C21.9939985,4.39066746 21.6790017,4.61933184 21.343,4.918 L21.343,8.488 Z M31.885,7.228 C31.8289997,6.86399818 31.8406663,6.53500147 31.92,6.241 C31.9993337,5.94699853 32.1089993,5.67633457 32.249,5.429 C32.3890007,5.18166543 32.5499991,4.95066774 32.732,4.736 C32.9140009,4.52133226 33.0843325,4.30900105 33.243,4.099 C33.4016675,3.88899895 33.5346661,3.67666774 33.642,3.462 C33.7493339,3.24733226 33.803,3.01400126 33.803,2.762 C33.803,2.3886648 33.6886678,2.06900133 33.46,1.803 C33.2313322,1.53699867 32.8930022,1.404 32.445,1.404 C32.1369985,1.404 31.8453347,1.47633261 31.57,1.621 C31.2946653,1.76566739 31.0496677,1.96399874 30.835,2.216 L30.177,1.614 C30.4756682,1.27799832 30.8163314,1.00033443 31.199,0.781 C31.5816686,0.56166557 32.0249975,0.452 32.529,0.452 C33.2570036,0.452 33.8379978,0.65033135 34.272,1.047 C34.7060022,1.44366865 34.923,1.9919965 34.923,2.692 C34.923,3.00000154 34.8670006,3.27999874 34.755,3.532 C34.6429994,3.78400126 34.5053341,4.02199888 34.342,4.246 C34.1786658,4.47000112 34.0060009,4.69166557 33.824,4.911 C33.6419991,5.13033443 33.4740008,5.3566655 33.32,5.59 C33.1659992,5.8233345 33.0470004,6.07299867 32.963,6.339 C32.8789996,6.60500133 32.8556665,6.9013317 32.893,7.228 L31.885,7.228 Z M31.591,9.3 C31.591,9.02933198 31.6703325,8.81233415 31.829,8.649 C31.9876675,8.48566585 32.1836655,8.404 32.417,8.404 C32.6503345,8.404 32.8486658,8.48566585 33.012,8.649 C33.1753341,8.81233415 33.257,9.02933198 33.257,9.3 C33.257,9.55200126 33.1753341,9.75966585 33.012,9.923 C32.8486658,10.0863342 32.6503345,10.168 32.417,10.168 C32.1836655,10.168 31.9876675,10.0863342 31.829,9.923 C31.6703325,9.75966585 31.591,9.55200126 31.591,9.3 Z" id="path-4"></path>
    </defs>
    <g id="components" stroke="none" stroke-width="1" fill="none" fill-rule="evenodd">
        <g id="chat" transform="translate(-213.000000, -243.000000)">
            <g id="icon/custom/steve/help" transform="translate(217.000000, 246.000000)">
                <g id="colors/brand-color" transform="translate(26.000000, 12.000000) scale(-1, 1) translate(-26.000000, -12.000000) ">
                    <mask id="mask-2" fill="white">
                        <use xlink:href="#path-1"></use>
                    </mask>
                    <g id="Mask">
                        <use fill="black" fill-opacity="1" filter="url(#filter-3)" xlink:href="#path-1"></use>
                        <use fill="#001036" fill-rule="evenodd" xlink:href="#path-1"></use>
                    </g>
                    <g id="colors/brand-second" mask="url(#mask-2)" fill="#5197C9">
                        <rect id="Rectangle-Copy" x="0" y="0" width="52" height="24"></rect>
                    </g>
                </g>
                <g id="colors/accent" transform="translate(8.000000, 5.000000)">
                    <mask id="mask-5" fill="white">
                        <use xlink:href="#path-4"></use>
                    </mask>
                    <use id="Mask" fill="#0CC690" xlink:href="#path-4"></use>
                    <g id="colors/white" mask="url(#mask-5)" fill="#FFFFFF">
                        <g transform="translate(-10.000000, -4.000000)" id="gris-light">
                            <rect x="0" y="0" width="52" height="24"></rect>
                        </g>
                    </g>
                </g>
            </g>
        </g>
    </g>
</svg>