<?xml version="1.0" encoding="UTF-8"?>
<svg width="27px" height="21px" viewBox="0 0 27 21" version="1.1" xmlns="http://www.w3.org/2000/svg" xmlns:xlink="http://www.w3.org/1999/xlink">
    <!-- Generator: Sketch 46.2 (44496) - http://www.bohemiancoding.com/sketch -->
    <title>chat/icon-take-photo</title>
    <desc>Created with Sketch.</desc>
    <defs></defs>
    <g id="components" stroke="none" stroke-width="1" fill="none" fill-rule="evenodd">
        <g id="chat" transform="translate(-120.000000, -183.000000)" fill="#A9A9A9">
            <g id="icon/custom/photoPlain" transform="translate(113.000000, 175.000000)">
                <g id="photo-camera" transform="translate(7.000000, 8.000000)">
                    <path d="M24.3,3.9375 C25.785,3.9375 27,5.11875 27,6.5625 L27,18.375 C27,19.81875 25.785,21 24.3,21 L2.7,21 C1.215,21 0,19.81875 0,18.375 L0,6.5625 C0,5.11875 1.215,3.9375 2.7,3.9375 L5.94,3.9375 C6.3855,3.9375 6.86502,3.6015 7.00623,3.1906875 L7.84377,0.747075 C7.98444,0.336 8.4645,0 8.91,0 L18.09,0 C18.5355,0 19.01502,0.336 19.15623,0.7468125 L19.99377,3.190425 C20.13444,3.6015 20.6145,3.9375 21.06,3.9375 L24.3,3.9375 Z M13.5,17 C10.4624339,17 8,14.5375661 8,11.5 C8,8.46243388 10.4624339,6 13.5,6 C16.5375661,6 19,8.46243388 19,11.5 C19,14.5375661 16.5375661,17 13.5,17 Z M13.5,18 C17.0898509,18 20,15.0898509 20,11.5 C20,7.91014913 17.0898509,5 13.5,5 C9.91014913,5 7,7.91014913 7,11.5 C7,15.0898509 9.91014913,18 13.5,18 Z M21.945,7.8375 C22.46691,7.8375 22.89,7.426425 22.89,6.91875 C22.89,6.4116 22.46718,6 21.945,6 C21.42336,6 21,6.4116 21,6.91875 C21,7.426425 21.42336,7.8375 21.945,7.8375 Z" id="Combined-Shape"></path>
                </g>
            </g>
        </g>
    </g>
</svg>